<svg width="25" height="22" viewBox="0 0 25 22" fill="none" xmlns="http://www.w3.org/2000/svg">
<rect width="25" height="22" fill="#E5E5E5"/>
<g clip-path="url(#clip0_0_1)">
<rect width="375" height="812" transform="translate(-245 -727)" fill="white"/>
<g filter="url(#filter0_bi_0_1)">
<path fill-rule="evenodd" clip-rule="evenodd" d="M-245 -22V85H130V-22H-245Z" fill="white" fill-opacity="0.88"/>
</g>
<g opacity="0.2">
<path d="M22.0767 2.99419C21.5233 2.44061 20.8664 2.00147 20.1433 1.70187C19.4202 1.40226 18.6452 1.24805 17.8625 1.24805C17.0798 1.24805 16.3048 1.40226 15.5817 1.70187C14.8586 2.00147 14.2016 2.44061 13.6483 2.99419L12.5 4.14252L11.3517 2.99419C10.234 1.87652 8.71812 1.24863 7.1375 1.24863C5.55688 1.24863 4.041 1.87652 2.92333 2.99419C1.80566 4.11186 1.17776 5.62774 1.17776 7.20836C1.17776 8.78898 1.80566 10.3049 2.92333 11.4225L4.07166 12.5709L12.5 20.9992L20.9283 12.5709L22.0767 11.4225C22.6302 10.8692 23.0694 10.2122 23.369 9.48916C23.6686 8.76608 23.8228 7.99105 23.8228 7.20836C23.8228 6.42566 23.6686 5.65064 23.369 4.92756C23.0694 4.20448 22.6302 3.54751 22.0767 2.99419V2.99419Z" fill="#212227" stroke="#212227" stroke-width="2" stroke-linecap="round" stroke-linejoin="round"/>
</g>
</g>
<defs>
<filter id="filter0_bi_0_1" x="-275" y="-52" width="435" height="167" filterUnits="userSpaceOnUse" color-interpolation-filters="sRGB">
<feFlood flood-opacity="0" result="BackgroundImageFix"/>
<feGaussianBlur in="BackgroundImage" stdDeviation="15"/>
<feComposite in2="SourceAlpha" operator="in" result="effect1_backgroundBlur_0_1"/>
<feBlend mode="normal" in="SourceGraphic" in2="effect1_backgroundBlur_0_1" result="shape"/>
<feColorMatrix in="SourceAlpha" type="matrix" values="0 0 0 0 0 0 0 0 0 0 0 0 0 0 0 0 0 0 127 0" result="hardAlpha"/>
<feOffset dy="0.5"/>
<feComposite in2="hardAlpha" operator="arithmetic" k2="-1" k3="1"/>
<feColorMatrix type="matrix" values="0 0 0 0 0 0 0 0 0 0 0 0 0 0 0 0 0 0 0.1 0"/>
<feBlend mode="normal" in2="shape" result="effect2_innerShadow_0_1"/>
</filter>
<clipPath id="clip0_0_1">
<rect width="375" height="812" fill="white" transform="translate(-245 -727)"/>
</clipPath>
</defs>
</svg>
