<svg width="25" height="22" viewBox="0 0 25 22" fill="none" xmlns="http://www.w3.org/2000/svg">
<path d="M22.0767 2.99419C21.5234 2.44061 20.8664 2.00147 20.1433 1.70187C19.4202 1.40226 18.6452 1.24805 17.8625 1.24805C17.0798 1.24805 16.3048 1.40226 15.5817 1.70187C14.8586 2.00147 14.2017 2.44061 13.6484 2.99419L12.5 4.14252L11.3517 2.99419C10.234 1.87652 8.71815 1.24863 7.13753 1.24863C5.55691 1.24863 4.04103 1.87652 2.92336 2.99419C1.80569 4.11186 1.1778 5.62774 1.1778 7.20836C1.1778 8.78898 1.80569 10.3049 2.92336 11.4225L4.07169 12.5709L12.5 20.9992L20.9284 12.5709L22.0767 11.4225C22.6303 10.8692 23.0694 10.2122 23.369 9.48916C23.6686 8.76608 23.8228 7.99105 23.8228 7.20836C23.8228 6.42566 23.6686 5.65064 23.369 4.92756C23.0694 4.20448 22.6303 3.54751 22.0767 2.99419Z" fill="#212227" stroke="#212227" stroke-width="2" stroke-linecap="round" stroke-linejoin="round"/>
</svg>
